<?xml version="1.0" standalone="no"?>
<!DOCTYPE svg PUBLIC "-//W3C//DTD SVG 20010904//EN"
 "http://www.w3.org/TR/2001/REC-SVG-20010904/DTD/svg10.dtd">
<svg version="1.0" xmlns="http://www.w3.org/2000/svg"
 width="512.000000pt" height="512.000000pt" viewBox="0 0 512.000000 512.000000"
 preserveAspectRatio="xMidYMid meet">

<g transform="translate(0.000000,512.000000) scale(0.100000,-0.100000)"
fill="#000000" stroke="none">
<path d="M2525 5108 c-45 -24 -45 -27 -45 -345 l0 -304 25 -24 c26 -27 51 -31
88 -14 44 20 47 43 47 344 0 301 -3 324 -47 344 -30 14 -42 13 -68 -1z"/>
<path d="M1262 4743 c-21 -8 -44 -62 -36 -86 7 -26 311 -504 326 -513 5 -3 25
-6 43 -7 47 -1 75 26 75 73 0 30 -26 78 -146 266 -80 126 -157 239 -170 252
-23 21 -62 27 -92 15z"/>
<path d="M3822 4720 c-13 -6 -84 -103 -182 -252 -123 -187 -160 -250 -160
-275 0 -71 82 -99 132 -45 14 15 91 126 172 247 160 241 169 263 121 310 -25
26 -45 30 -83 15z"/>
<path d="M2370 4005 c-495 -74 -900 -415 -1060 -893 -43 -128 -61 -248 -62
-402 0 -219 44 -409 139 -595 65 -129 132 -221 248 -344 56 -59 114 -128 129
-153 61 -104 102 -277 113 -471 5 -95 10 -123 25 -143 l19 -24 637 0 c546 1
640 3 657 15 16 13 21 37 32 173 23 286 77 433 213 577 185 196 275 339 345
548 53 159 68 271 62 456 -8 252 -58 423 -185 636 -265 446 -797 697 -1312
620z m411 -175 c263 -54 471 -175 648 -375 304 -347 368 -853 160 -1268 -60
-117 -108 -184 -214 -297 -51 -54 -107 -119 -125 -145 -76 -111 -131 -271
-151 -440 -6 -49 -13 -109 -15 -133 l-5 -42 -519 0 -518 0 -7 78 c-9 116 -42
276 -74 357 -48 123 -95 196 -205 313 -118 125 -166 191 -225 308 -83 164
-121 325 -121 515 0 315 114 591 336 813 168 168 375 277 609 321 111 21 310
18 426 -5z"/>
<path d="M2505 3655 c-32 -31 -33 -78 -2 -109 19 -19 39 -25 103 -30 316 -29
565 -186 707 -446 66 -119 94 -216 106 -356 7 -77 12 -100 29 -117 29 -29 85
-28 114 1 20 19 22 31 20 103 -10 355 -225 691 -549 861 -136 71 -313 118
-446 118 -48 0 -62 -4 -82 -25z"/>
<path d="M452 3877 c-25 -27 -29 -73 -7 -103 18 -27 513 -294 544 -294 30 0
81 52 81 83 0 14 -8 34 -17 45 -28 33 -517 292 -551 292 -17 0 -37 -9 -50 -23z"/>
<path d="M4581 3889 c-74 -29 -495 -265 -511 -287 -26 -32 -25 -63 1 -96 38
-48 67 -39 332 105 133 72 252 140 265 152 38 35 28 98 -19 122 -32 17 -35 17
-68 4z"/>
<path d="M1977 860 c-46 -14 -98 -60 -118 -104 -44 -98 -5 -207 94 -257 36
-19 61 -19 620 -17 l582 3 36 24 c56 38 82 84 87 150 7 94 -49 177 -136 201
-45 12 -1123 12 -1165 0z m1127 -166 c9 -8 16 -19 16 -23 0 -29 -36 -31 -565
-29 -507 3 -538 4 -549 21 -9 15 -7 21 8 33 17 12 104 14 547 14 466 0 529 -2
543 -16z"/>
<path d="M2115 374 c-46 -24 -93 -74 -106 -112 -6 -19 -9 -59 -7 -88 6 -66 43
-118 108 -151 44 -23 49 -23 450 -23 373 0 408 2 445 19 143 66 158 253 26
342 l-36 24 -425 3 c-370 2 -429 0 -455 -14z m843 -176 c3 -22 -2 -28 -20 -33
-13 -3 -189 -4 -392 -3 -331 3 -370 5 -379 20 -8 12 -7 21 2 32 12 14 56 16
400 14 l386 -3 3 -27z"/>
</g>
</svg>
